<svg width="86" height="88" viewBox="0 0 86 88" fill="none" xmlns="http://www.w3.org/2000/svg">
<g filter="url(#filter0_d)">
<path d="M68.0156 34.7127H18.031C16.2766 34.7127 14.8494 33.2951 14.8494 31.5524V22.0842C14.8494 20.3415 16.2766 18.9233 18.031 18.9233H68.0149C69.7687 18.9233 71.1953 20.3415 71.1953 22.0842V31.553C71.1959 33.2951 69.7693 34.7127 68.0156 34.7127ZM18.031 21.3455C17.6276 21.3455 17.2869 21.684 17.2869 22.0842V31.553C17.2869 31.9599 17.6208 32.2912 18.031 32.2912H68.0149C68.4244 32.2912 68.7578 31.9599 68.7578 31.553V22.0842C68.7578 21.6834 68.4171 21.3455 68.0149 21.3455H18.031Z" fill="white"/>
<path d="M61.0447 67.1488H24.999C21.6218 67.1488 18.8741 64.4191 18.8741 61.0626V33.5016C18.8741 32.8331 19.4201 32.2905 20.0929 32.2905C20.7656 32.2905 21.3116 32.8331 21.3116 33.5016V61.0626C21.3116 63.0833 22.9661 64.7267 24.999 64.7267H61.0447C63.077 64.7267 64.7308 63.0833 64.7308 61.0626V33.5016C64.7308 32.8331 65.2768 32.2905 65.9496 32.2905C66.6223 32.2905 67.1683 32.8331 67.1683 33.5016V61.0626C67.1683 64.4191 64.4213 67.1488 61.0447 67.1488Z" fill="white"/>
<path d="M43.0225 67.1488C42.3498 67.1488 41.8038 66.6069 41.8038 65.9378V33.5016C41.8038 32.8331 42.3498 32.2905 43.0225 32.2905C43.6953 32.2905 44.2413 32.8331 44.2413 33.5016V65.9372C44.2413 66.6069 43.6959 67.1488 43.0225 67.1488Z" fill="white"/>
<path d="M27.8113 21.3414C23.9966 19.2874 22.5731 14.5327 24.6383 10.7415C26.7022 6.95201 31.4864 5.53687 35.303 7.58721C41.117 10.7166 44.2565 19.4472 44.3869 19.8172L42.0877 20.6208C42.0585 20.5384 39.1256 12.3994 34.1433 9.71749C31.5078 8.30175 28.2062 9.27908 26.7821 11.8944C25.3567 14.5121 26.339 17.7941 28.9734 19.2117L27.8113 21.3414Z" fill="white"/>
<path d="M58.2313 21.3413L57.071 19.2111C58.3477 18.5238 59.2782 17.3848 59.6926 16.0035C60.1063 14.6217 59.9534 13.1624 59.2617 11.895C58.5719 10.6264 57.4263 9.70233 56.0363 9.29117C54.6457 8.88001 53.1783 9.0314 51.9023 9.71747C46.9201 12.3988 43.9871 20.5378 43.9579 20.6202L41.6587 19.8166C41.7891 19.4466 44.928 10.716 50.7421 7.58719C52.5897 6.5929 54.7182 6.3737 56.7316 6.96955C58.7468 7.56479 60.4061 8.90484 61.4061 10.7414C62.4073 12.5774 62.6285 14.6913 62.0289 16.6939C61.4287 18.6958 60.0801 20.3458 58.2313 21.3413Z" fill="white"/>
<path d="M65.9496 50.9314H20.0929C19.4201 50.9314 18.8741 50.3889 18.8741 49.7204C18.8741 49.0518 19.4201 48.5093 20.0929 48.5093H65.9496C66.6223 48.5093 67.1683 49.0518 67.1683 49.7204C67.1683 50.3889 66.6229 50.9314 65.9496 50.9314Z" fill="white"/>
</g>
<defs>
<filter id="filter0_d" x="0" y="-0.000244141" width="86" height="88" filterUnits="userSpaceOnUse" color-interpolation-filters="sRGB">
<feFlood flood-opacity="0" result="BackgroundImageFix"/>
<feColorMatrix in="SourceAlpha" type="matrix" values="0 0 0 0 0 0 0 0 0 0 0 0 0 0 0 0 0 0 127 0" result="hardAlpha"/>
<feOffset dy="4"/>
<feGaussianBlur stdDeviation="2"/>
<feComposite in2="hardAlpha" operator="out"/>
<feColorMatrix type="matrix" values="0 0 0 0 0 0 0 0 0 0 0 0 0 0 0 0 0 0 0.25 0"/>
<feBlend mode="normal" in2="BackgroundImageFix" result="effect1_dropShadow"/>
<feBlend mode="normal" in="SourceGraphic" in2="effect1_dropShadow" result="shape"/>
</filter>
</defs>
</svg>
